<?xml version="1.0" standalone="no"?>
<!DOCTYPE svg PUBLIC "-//W3C//DTD SVG 20010904//EN"
 "http://www.w3.org/TR/2001/REC-SVG-20010904/DTD/svg10.dtd">
<svg version="1.0" xmlns="http://www.w3.org/2000/svg"
 width="1860.000000pt" height="1140.000000pt" viewBox="0 0 1860.000000 1140.000000"
 preserveAspectRatio="xMidYMid meet">

<g transform="translate(0.000000,1140.000000) scale(0.100000,-0.100000)"
fill="#000000" stroke="none">
<path d="M9392 9077 c-309 -309 -323 -325 -320 -357 l3 -34 220 206 c121 113
267 250 323 304 l104 99 -4 53 -3 52 -323 -323z"/>
<path d="M9870 9349 l0 -52 123 -116 c67 -65 223 -211 347 -325 124 -115 232
-217 241 -227 22 -24 27 -17 20 25 -5 29 -64 91 -368 391 l-363 357 0 -53z"/>
<path d="M9660 9147 c-30 -28 -116 -104 -190 -170 -380 -338 -397 -354 -404
-395 l-6 -33 38 33 c142 123 524 460 569 502 47 44 54 55 51 83 l-3 31 -55
-51z"/>
<path d="M9870 9168 c0 -37 -15 -22 300 -298 184 -161 325 -286 376 -332 28
-27 54 -48 57 -48 4 0 7 10 7 23 0 27 -55 82 -304 303 -99 87 -224 200 -279
249 -54 50 -112 101 -128 114 l-29 24 0 -35z"/>
<path d="M9655 9012 c-61 -57 -562 -503 -582 -517 -9 -7 -13 -23 -11 -39 3
-32 -24 -54 457 364 184 160 201 177 201 207 0 18 -3 33 -7 33 -5 0 -31 -22
-58 -48z"/>
<path d="M9870 9031 c0 -33 1 -34 380 -361 129 -112 263 -228 298 -258 l62
-54 0 29 c0 32 20 14 -444 422 -78 69 -172 153 -211 188 -38 35 -73 63 -77 63
-4 0 -8 -13 -8 -29z"/>
<path d="M9540 8762 c-507 -424 -485 -403 -488 -450 l-3 -43 133 108 c73 60
216 176 316 258 101 83 193 157 204 166 15 12 19 25 16 61 l-3 46 -175 -146z"/>
<path d="M9870 8866 l0 -45 163 -133 c432 -353 568 -463 577 -466 6 -2 10 12
10 31 0 38 0 38 -246 243 -72 60 -212 178 -312 262 -100 83 -184 152 -187 152
-3 0 -5 -20 -5 -44z"/>
<path d="M9870 8676 l0 -44 98 -74 c53 -41 153 -117 222 -169 363 -276 421
-319 426 -319 3 0 4 15 2 32 -3 30 -34 57 -348 306 -190 150 -357 282 -372
293 l-28 20 0 -45z"/>
<path d="M9625 8645 c-44 -35 -192 -153 -330 -262 -212 -169 -250 -203 -256
-230 -8 -41 -1 -48 25 -25 12 11 116 90 231 177 461 348 425 317 425 367 0 21
-3 38 -7 37 -5 0 -44 -29 -88 -64z"/>
<path d="M10700 8545 c0 -25 13 -38 300 -309 97 -91 136 -122 139 -110 2 11
-71 90 -210 230 -118 118 -217 214 -221 214 -5 0 -8 -11 -8 -25z"/>
<path d="M9870 8492 l0 -59 56 -39 c71 -50 164 -116 457 -325 131 -93 240
-169 242 -169 3 0 5 20 5 44 l0 44 -187 139 c-104 77 -262 194 -353 262 -91
67 -172 127 -180 134 -38 32 -40 30 -40 -31z"/>
<path d="M9605 8463 c-55 -41 -174 -130 -265 -197 -91 -68 -192 -142 -225
-167 -32 -24 -63 -47 -69 -51 -8 -6 -27 -108 -19 -108 2 0 69 47 150 105 82
57 172 121 202 142 30 21 91 65 137 98 46 33 111 79 144 102 l60 43 0 55 c0
30 -3 55 -7 54 -5 0 -53 -34 -108 -76z"/>
<path d="M8642 8327 c-110 -110 -182 -190 -182 -201 0 -19 0 -19 19 0 10 10
95 91 190 179 124 116 171 166 171 182 0 13 -3 23 -8 23 -4 0 -89 -82 -190
-183z"/>
<path d="M10710 8424 c0 -26 19 -47 147 -159 81 -72 179 -158 217 -193 66 -59
71 -62 75 -40 2 17 -8 32 -37 58 -74 65 -317 284 -322 289 -3 3 -22 22 -43 40
l-37 35 0 -30z"/>
<path d="M8643 8235 c-152 -139 -193 -181 -193 -201 0 -21 20 -6 160 117 255
224 252 222 245 242 -4 9 -10 17 -14 17 -3 0 -93 -79 -198 -175z"/>
<path d="M9645 8276 c-33 -23 -125 -87 -205 -142 -80 -54 -207 -141 -283 -193
l-137 -95 0 -43 0 -43 48 30 c26 16 99 63 162 104 63 41 199 127 302 193 l187
118 1 58 c0 31 -3 57 -7 56 -5 0 -35 -19 -68 -43z"/>
<path d="M9870 8266 l0 -54 223 -143 c122 -79 265 -171 317 -204 165 -106 210
-135 215 -135 3 0 5 18 5 39 l0 39 -302 208 c-167 115 -334 230 -373 256 -38
26 -73 48 -77 48 -4 0 -8 -24 -8 -54z"/>
<path d="M10710 8297 c0 -20 31 -52 153 -158 83 -73 185 -162 225 -197 67 -60
72 -63 72 -39 0 21 -39 61 -206 209 -254 226 -244 218 -244 185z"/>
<path d="M8824 8271 c-23 -20 -117 -103 -210 -185 -103 -91 -172 -159 -176
-175 -4 -14 -6 -26 -4 -28 2 -2 81 65 177 149 96 84 194 169 217 190 33 28 43
42 40 61 l-3 25 -41 -37z"/>
<path d="M8857 8193 c-9 -10 -108 -94 -221 -188 -113 -93 -208 -180 -212 -192
-16 -59 1 -54 108 34 59 48 163 134 232 191 126 103 141 124 118 160 -7 10
-12 8 -25 -5z"/>
<path d="M10721 8163 c0 -36 6 -42 107 -124 59 -48 160 -130 225 -183 66 -54
121 -96 123 -93 2 2 1 18 -2 36 -5 25 -30 51 -118 123 -61 51 -156 131 -211
178 -129 112 -125 109 -124 63z"/>
<path d="M9870 8041 l0 -60 118 -69 c368 -217 639 -372 647 -372 3 0 5 21 3
47 l-3 47 -85 52 c-47 28 -157 95 -245 149 -88 54 -178 109 -200 122 -22 13
-69 42 -105 64 -36 22 -80 50 -97 61 l-33 20 0 -61z"/>
<path d="M9653 8057 c-28 -18 -121 -74 -205 -125 -84 -51 -196 -120 -248 -153
-52 -32 -116 -71 -142 -86 -48 -26 -48 -26 -48 -79 l0 -54 78 47 c42 25 118
69 167 98 50 28 131 76 180 105 50 29 127 74 172 100 114 65 113 64 113 126 0
30 -3 54 -7 54 -5 -1 -31 -15 -60 -33z"/>
<path d="M8675 7894 c-121 -97 -230 -183 -241 -192 -12 -10 -25 -30 -28 -46
-9 -35 -41 -56 268 177 213 161 236 182 236 208 0 16 -3 29 -7 29 -5 -1 -107
-80 -228 -176z"/>
<path d="M10720 8031 c0 -34 32 -69 137 -148 65 -49 167 -126 226 -171 102
-78 108 -81 105 -55 -2 23 -43 59 -227 205 -124 98 -229 178 -233 178 -4 0 -8
-4 -8 -9z"/>
<path d="M8764 7839 c-82 -61 -197 -146 -256 -190 -93 -69 -108 -84 -114 -115
-3 -19 -4 -37 -1 -40 2 -3 124 80 270 183 264 187 266 188 266 225 1 20 -3 39
-7 42 -5 3 -76 -44 -158 -105z"/>
<path d="M10730 7866 l0 -44 228 -162 c242 -173 260 -184 249 -156 -4 10 -7
28 -7 40 0 21 -40 53 -398 318 -73 54 -72 54 -72 4z"/>
<path d="M9240 7624 c-261 -146 -511 -285 -555 -308 -44 -24 -98 -54 -120 -66
-22 -13 -78 -45 -125 -71 -74 -41 -86 -51 -92 -80 -3 -19 -6 -35 -4 -36 2 -2
110 52 466 234 561 288 661 339 783 400 l127 64 0 65 c0 35 -1 64 -2 63 -2 0
-217 -120 -478 -265z"/>
<path d="M9870 7832 c0 -36 5 -64 13 -70 6 -5 147 -78 312 -162 165 -84 333
-170 373 -192 l72 -39 0 48 0 49 -377 210 c-207 115 -380 211 -385 212 -4 2
-8 -23 -8 -56z"/>
<path d="M8840 7723 c-111 -77 -332 -230 -407 -280 -45 -31 -75 -75 -59 -90 6
-6 25 6 366 228 80 52 162 105 183 118 25 15 36 28 33 38 -3 8 -6 23 -6 34 0
10 -3 19 -7 19 -5 -1 -51 -31 -103 -67z"/>
<path d="M10740 7691 c0 -38 3 -41 68 -82 78 -49 169 -107 305 -196 53 -34 99
-63 102 -63 3 0 5 11 5 24 0 29 -17 43 -191 161 -73 50 -166 114 -207 143 -40
28 -75 52 -78 52 -2 0 -4 -18 -4 -39z"/>
<path d="M9650 7624 c-25 -14 -173 -87 -330 -163 -358 -174 -597 -290 -816
-397 l-172 -83 -4 -41 c-2 -23 -2 -43 0 -45 2 -2 16 3 30 11 15 8 52 25 82 38
99 43 334 147 365 161 17 8 112 51 213 95 161 71 476 210 587 260 22 10 57 25
78 33 l37 16 0 70 c0 81 -2 82 -70 45z"/>
<path d="M9870 7581 l0 -68 98 -43 c53 -23 115 -50 137 -60 231 -103 437 -195
470 -210 22 -10 119 -53 215 -95 96 -43 244 -108 328 -145 163 -74 160 -73
146 -3 -4 23 -16 34 -56 52 -27 13 -179 86 -336 163 -158 77 -345 168 -417
203 -71 34 -228 110 -348 169 -120 58 -222 106 -227 106 -6 0 -10 -31 -10 -69z"/>
<path d="M8940 7623 c-14 -11 -83 -54 -155 -97 -71 -43 -146 -88 -165 -101
-19 -12 -86 -53 -147 -91 -112 -68 -113 -69 -113 -106 0 -21 2 -38 5 -38 3 0
22 11 43 24 20 13 87 52 147 87 61 34 169 96 240 137 72 41 142 81 158 89 21
11 27 21 26 46 0 18 -4 40 -8 50 -6 18 -8 18 -31 0z"/>
<path d="M10750 7513 c5 -45 8 -49 60 -79 30 -17 111 -64 180 -104 217 -127
243 -141 248 -136 12 12 -11 77 -31 90 -67 40 -216 132 -318 194 -154 95 -146
93 -139 35z"/>
<path d="M9870 7335 c0 -74 -8 -67 132 -120 38 -14 96 -36 130 -49 35 -14 106
-41 158 -61 52 -20 124 -48 160 -62 159 -61 186 -71 210 -78 14 -4 30 -11 35
-15 6 -4 28 -13 50 -20 22 -7 54 -18 70 -26 30 -13 230 -89 383 -146 46 -17
86 -27 89 -24 4 3 2 23 -3 43 -11 46 8 36 -329 173 -82 34 -169 70 -192 81
-24 10 -45 19 -49 19 -3 0 -30 11 -60 25 -30 14 -57 25 -60 25 -3 0 -20 6 -37
14 -18 8 -72 31 -122 51 -49 20 -103 43 -120 50 -16 8 -106 45 -200 84 -93 38
-187 77 -207 85 l-38 16 0 -65z"/>
<path d="M10757 7358 c3 -24 8 -46 12 -49 3 -4 113 -61 244 -128 l237 -122 0
35 0 34 -245 136 c-135 75 -247 136 -249 136 -2 0 -2 -19 1 -42z"/>
<path d="M9565 7334 c-124 -52 -300 -125 -485 -201 -47 -19 -137 -56 -200 -83
-63 -27 -182 -76 -265 -110 -82 -34 -168 -70 -190 -79 -22 -10 -51 -22 -65
-26 -14 -4 -31 -12 -37 -17 -14 -11 -18 -88 -5 -88 4 0 54 19 112 41 58 22
128 49 155 59 28 9 91 34 140 53 50 20 252 97 450 172 323 122 429 163 518
197 26 10 27 14 27 74 0 45 -4 64 -12 63 -7 0 -71 -25 -143 -55z"/>
<path d="M9640 7109 c-78 -31 -261 -98 -490 -181 -74 -27 -149 -55 -167 -63
-17 -8 -34 -15 -37 -15 -3 0 -85 -30 -183 -66 -297 -110 -437 -162 -455 -169
-20 -8 -30 -95 -11 -95 6 0 42 11 80 24 57 21 490 163 1185 390 l158 51 0 78
c0 42 -1 77 -2 76 -2 -1 -37 -14 -78 -30z"/>
<path d="M9872 7064 l3 -78 300 -98 c165 -54 484 -159 708 -233 225 -74 413
-135 418 -135 12 0 12 42 0 73 -8 19 -33 32 -138 69 -70 26 -202 74 -293 108
-271 101 -428 159 -555 205 -168 62 -407 151 -428 160 -16 7 -18 1 -15 -71z"/>
<path d="M9630 6820 c-52 -17 -140 -44 -345 -105 -49 -15 -124 -37 -165 -50
-72 -22 -164 -50 -335 -101 -44 -13 -145 -43 -225 -68 -80 -24 -176 -53 -215
-64 l-70 -19 -9 -46 c-5 -26 -7 -50 -3 -53 7 -7 104 16 382 91 198 53 250 67
428 114 39 11 176 47 302 81 127 34 254 68 283 75 30 7 58 17 62 21 5 5 6 39
3 77 -7 76 -6 76 -93 47z"/>
<path d="M9870 6766 l0 -74 48 -11 c43 -11 192 -51 564 -151 81 -22 150 -40
153 -40 3 0 5 29 5 63 l0 64 -42 12 c-110 32 -277 82 -551 166 -82 25 -155 45
-163 45 -11 0 -14 -17 -14 -74z"/>
<path d="M10832 6498 l3 -62 65 -17 c36 -9 119 -31 185 -49 195 -52 244 -64
249 -59 12 11 -8 90 -25 99 -9 6 -71 26 -136 45 -160 48 -282 85 -316 95 l-28
9 3 -61z"/>
<path d="M9620 6509 c-41 -10 -176 -41 -300 -69 -124 -28 -274 -62 -335 -76
-129 -29 -278 -62 -465 -104 -280 -63 -268 -59 -274 -88 -3 -15 -6 -45 -8 -67
-3 -39 -2 -40 27 -37 17 2 68 12 115 22 88 20 224 47 390 79 181 35 895 181
924 189 l29 8 0 80 c-1 58 -5 79 -15 81 -7 1 -47 -7 -88 -18z"/>
<path d="M9870 6446 c0 -47 3 -86 8 -86 4 0 173 -34 377 -75 203 -41 376 -75
382 -75 16 0 19 135 4 145 -6 3 -61 17 -123 31 -225 50 -594 134 -625 141 -23
5 -23 3 -23 -81z"/>
<path d="M10842 6240 c2 -59 6 -71 22 -76 33 -11 491 -102 494 -99 2 2 1 32
-3 68 l-7 64 -52 13 c-79 19 -446 100 -453 100 -3 0 -3 -32 -1 -70z"/>
<path d="M9605 6165 c-70 -13 -306 -52 -615 -100 -233 -37 -245 -39 -245 -50
1 -6 5 -40 9 -78 l8 -67 32 4 c17 3 87 14 156 25 69 11 224 34 345 51 121 18
267 40 324 49 l104 16 1 83 c1 95 8 91 -119 67z"/>
<path d="M9872 6099 l3 -83 75 -13 c41 -7 140 -22 220 -33 80 -11 219 -31 310
-45 91 -13 169 -25 173 -25 10 0 7 149 -3 155 -4 3 -93 18 -196 35 -104 16
-261 41 -349 55 -88 15 -177 29 -198 32 l-38 6 3 -84z"/>
<path d="M7739 6075 c-3 -2 -61 -16 -129 -30 -69 -14 -177 -36 -240 -49 -162
-34 -639 -175 -800 -236 -74 -28 -173 -65 -220 -81 -173 -62 -600 -266 -870
-416 -231 -129 -670 -403 -645 -403 4 0 47 19 94 41 475 229 583 278 731 334
112 43 196 75 284 110 36 14 67 25 71 25 4 0 21 6 38 14 111 50 184 75 592
196 77 23 196 59 265 80 69 21 163 46 210 55 47 9 108 23 135 30 28 7 129 30
225 50 96 21 207 45 245 55 l70 17 3 107 3 106 -29 0 c-16 0 -31 -2 -33 -5z"/>
<path d="M11802 5973 l3 -107 35 -9 c19 -5 82 -19 140 -32 566 -122 571 -123
1050 -268 301 -91 379 -118 515 -172 33 -13 92 -36 130 -50 298 -114 430 -166
500 -200 39 -18 137 -65 219 -104 81 -39 150 -71 152 -71 3 0 50 -23 106 -50
55 -28 102 -49 104 -48 1 2 -87 62 -196 135 -205 136 -591 357 -778 444 -400
188 -393 185 -642 278 -272 100 -317 116 -480 161 -36 9 -120 34 -187 54 -107
31 -624 146 -661 146 -10 0 -12 -24 -10 -107z"/>
<path d="M8640 6009 c-25 -5 -128 -22 -229 -39 -101 -16 -185 -31 -187 -33 -5
-5 -21 -136 -18 -140 4 -4 458 60 492 69 8 2 12 27 12 79 0 54 -4 75 -12 74
-7 -1 -33 -5 -58 -10z"/>
<path d="M10860 5952 c0 -39 4 -74 10 -77 12 -7 148 -30 340 -56 80 -10 153
-22 163 -25 19 -6 21 7 11 92 l-6 52 -87 16 c-72 13 -227 38 -393 63 l-38 6 0
-71z"/>
<path d="M9655 5843 c-16 -2 -138 -17 -270 -33 -132 -16 -320 -40 -418 -52
l-179 -23 7 -45 c14 -100 16 -108 33 -104 10 2 139 15 287 29 377 34 588 55
599 58 5 2 9 41 8 88 0 92 0 91 -67 82z"/>
<path d="M9870 5761 l0 -89 83 -7 c45 -3 138 -13 207 -20 108 -12 473 -45 501
-45 5 0 9 33 9 74 0 73 0 75 -27 80 -29 6 -101 15 -313 41 -69 8 -136 17 -150
20 -24 4 -293 35 -305 35 -3 0 -5 -40 -5 -89z"/>
<path d="M10876 5722 c-3 -5 -2 -40 1 -78 l6 -70 191 -17 c190 -17 251 -23
314 -32 l33 -4 -7 62 c-3 34 -10 66 -14 70 -4 5 -79 17 -166 28 -172 20 -296
37 -331 44 -12 3 -24 1 -27 -3z"/>
<path d="M8610 5714 c-8 -2 -105 -15 -214 -29 -109 -13 -200 -26 -202 -28 -5
-5 -21 -126 -18 -130 2 -2 34 0 71 4 37 4 151 14 253 24 102 10 188 21 192 24
4 4 9 36 10 71 l3 65 -40 2 c-22 0 -47 -1 -55 -3z"/>
<path d="M9475 5454 c-88 -7 -261 -18 -385 -24 -124 -6 -231 -13 -238 -16 -9
-2 -12 -14 -8 -31 3 -16 8 -47 11 -70 l7 -43 51 5 c29 2 192 9 362 15 171 6
343 13 383 16 l73 6 -3 76 -3 77 -45 1 c-25 0 -117 -5 -205 -12z"/>
<path d="M9870 5390 c0 -44 1 -80 3 -80 15 -3 672 -30 730 -30 l77 0 0 64 c0
36 -4 67 -9 71 -5 3 -92 10 -193 15 -101 6 -271 17 -378 25 -107 8 -203 15
-212 15 -16 0 -18 -10 -18 -80z"/>
<path d="M8530 5393 c-270 -15 -365 -24 -372 -36 -4 -6 -8 -34 -8 -60 l0 -48
123 6 c67 3 188 8 270 11 l147 6 0 42 c0 22 3 51 6 64 7 24 0 25 -166 15z"/>
<path d="M10892 5338 l3 -63 105 -6 c58 -4 183 -9 279 -13 l174 -5 -7 56 c-4
32 -8 59 -10 61 -4 3 -453 31 -514 32 l-33 0 3 -62z"/>
<path d="M8126 5078 c-12 -60 -12 -87 2 -93 7 -3 134 -5 282 -5 l267 0 7 50
c4 28 4 55 1 60 -4 6 -115 10 -280 10 l-275 0 -4 -22z"/>
<path d="M8896 5048 c4 -29 12 -56 18 -60 15 -11 788 -10 804 1 9 5 12 25 10
57 l-3 49 -418 3 -418 2 7 -52z"/>
<path d="M9872 5043 l3 -58 405 0 405 0 3 58 3 57 -411 0 -411 0 3 -57z"/>
<path d="M10910 5046 c0 -40 4 -55 16 -60 9 -3 135 -6 280 -6 295 0 282 -4
267 72 l-9 43 -277 3 -277 2 0 -54z"/>
<path d="M3325 3508 c-3 -7 -4 -350 -3 -762 l3 -748 62 0 c33 0 66 3 72 7 8 4
11 179 11 613 0 334 3 608 7 609 4 1 24 -24 44 -55 33 -51 110 -170 294 -452
34 -52 123 -187 197 -300 73 -113 161 -247 193 -299 33 -51 67 -100 76 -108
11 -10 38 -15 85 -15 l69 0 0 758 0 759 -70 0 -70 0 -2 -615 c-2 -338 -5 -621
-8 -629 -5 -13 -76 89 -259 377 -28 42 -78 120 -111 172 -97 149 -142 220
-290 450 -76 118 -145 223 -153 233 -19 21 -140 25 -147 5z"/>
<path d="M7985 3508 c-3 -7 -4 -350 -3 -763 l3 -750 70 0 70 0 5 340 5 340
385 0 385 0 3 -342 2 -343 64 0 c41 0 67 5 75 14 8 9 10 217 9 762 l-3 749
-72 3 -73 3 0 -351 0 -350 -390 0 -390 0 -2 348 -3 347 -68 3 c-48 2 -69 -1
-72 -10z"/>
<path d="M11524 3507 c-3 -8 -4 -43 -2 -78 l3 -64 70 0 70 0 0 75 0 75 -68 3
c-50 2 -69 -1 -73 -11z"/>
<path d="M5147 3089 c-184 -27 -299 -124 -358 -304 -20 -62 -22 -90 -23 -250
0 -175 1 -182 29 -260 16 -44 45 -100 63 -125 45 -58 121 -114 177 -130 25 -7
48 -17 51 -21 7 -12 267 -12 280 0 5 5 27 14 49 21 58 18 195 105 195 124 0 2
-21 25 -47 50 l-47 44 -37 -29 c-87 -69 -195 -96 -309 -78 -116 18 -187 64
-229 148 -20 41 -46 175 -36 191 4 6 131 10 376 10 l369 0 0 43 c-2 306 -95
485 -282 545 -79 26 -147 32 -221 21z m123 -140 c91 -14 141 -47 181 -115 27
-47 59 -162 59 -211 0 -10 -67 -13 -299 -13 -165 0 -302 4 -305 9 -8 13 15
131 35 177 19 47 74 106 119 129 16 8 53 19 82 24 29 5 55 9 58 10 3 0 34 -4
70 -10z"/>
<path d="M9770 3092 c-70 -5 -170 -41 -228 -84 -60 -44 -95 -95 -131 -188 -24
-62 -25 -75 -25 -275 0 -187 2 -217 21 -272 42 -124 124 -218 220 -250 27 -9
52 -20 57 -24 13 -12 269 -12 282 0 5 4 30 15 57 24 97 32 181 125 220 244 20
61 22 88 22 273 0 183 -2 212 -22 271 -64 196 -235 298 -473 281z m135 -147
c80 -11 139 -56 183 -140 27 -50 27 -52 27 -260 0 -192 -2 -214 -21 -256 -27
-58 -79 -117 -118 -133 -73 -30 -149 -37 -227 -21 -92 20 -132 50 -179 136
l-35 64 0 205 0 205 35 64 c47 87 93 122 178 137 37 7 76 11 87 9 11 -2 43 -7
70 -10z"/>
<path d="M11008 3090 c-27 -5 -69 -16 -95 -26 -52 -20 -148 -87 -157 -110 -3
-7 -11 -14 -18 -14 -9 0 -13 19 -13 67 l0 68 -72 3 -73 3 0 -546 0 -545 64 0
c42 0 67 5 75 14 8 9 11 118 11 372 0 198 4 375 8 394 13 51 57 111 105 142
83 54 250 55 330 2 22 -14 40 -24 41 -22 1 2 21 26 44 54 23 29 42 57 42 62 0
21 -89 63 -165 77 -42 8 -77 14 -78 14 -1 -1 -23 -5 -49 -9z"/>
<path d="M13430 3090 c-127 -16 -234 -73 -290 -155 -17 -24 -42 -76 -57 -117
-27 -71 -28 -78 -27 -278 1 -193 2 -209 26 -276 44 -120 119 -204 216 -240 26
-10 51 -21 56 -26 13 -11 283 -10 290 1 4 5 26 16 51 25 91 31 178 124 217
234 16 46 21 90 25 227 9 282 -17 385 -122 490 -54 55 -72 66 -141 88 -90 29
-165 37 -244 27z m150 -146 c25 -3 56 -12 70 -19 39 -20 91 -76 108 -115 52
-121 55 -391 5 -527 -17 -48 -98 -129 -135 -137 -115 -25 -133 -26 -192 -15
-68 13 -123 38 -147 65 -43 51 -70 116 -81 196 -12 91 -5 311 11 368 16 53 72
132 110 154 39 23 143 46 181 41 14 -2 45 -7 70 -11z"/>
<path d="M14695 3093 c-96 -9 -225 -69 -262 -123 -27 -38 -40 -24 -40 43 l0
62 -72 3 -71 3 2 -543 3 -543 68 -3 c50 -2 67 0 67 10 0 7 0 157 0 333 -1 359
9 443 56 515 55 83 176 121 306 96 85 -16 142 -60 183 -142 l30 -59 3 -372 4
-373 22 -6 c12 -3 45 -4 72 -2 l49 3 3 345 c3 382 -6 469 -53 567 -39 78 -106
138 -180 162 -67 22 -131 30 -190 24z"/>
<path d="M15765 3090 c-85 -10 -142 -28 -200 -60 -61 -35 -85 -60 -119 -124
-22 -41 -26 -62 -26 -133 0 -107 27 -166 95 -211 50 -33 180 -61 389 -82 192
-20 257 -79 227 -209 -21 -94 -120 -148 -286 -158 -109 -7 -191 14 -317 79
l-77 40 -33 -37 c-35 -40 -52 -65 -46 -69 34 -29 154 -88 203 -101 36 -10 68
-22 71 -27 3 -4 75 -8 160 -8 130 0 165 3 217 21 120 40 189 95 228 184 31 69
31 181 0 250 -54 123 -113 145 -481 180 -91 9 -152 30 -186 66 -40 42 -41 118
0 179 71 107 300 127 493 42 39 -18 74 -32 76 -32 3 0 24 22 47 50 l41 49 -70
35 c-121 61 -282 91 -406 76z"/>
<path d="M5854 3063 c3 -10 38 -119 77 -243 39 -124 82 -259 94 -300 64 -206
158 -497 166 -512 8 -14 23 -18 64 -18 65 0 59 -9 125 183 128 378 216 617
226 617 6 0 16 -19 23 -42 14 -49 200 -578 239 -681 28 -74 39 -81 108 -75 44
3 36 -16 140 313 55 175 95 302 187 590 25 77 48 150 51 163 7 22 6 22 -72 22
l-80 0 -14 -57 c-9 -32 -36 -128 -61 -213 -67 -225 -115 -393 -141 -488 -13
-46 -28 -88 -33 -93 -7 -7 -26 37 -58 128 -86 252 -143 416 -197 570 l-53 153
-42 0 c-24 0 -43 -2 -43 -3 0 -2 -36 -109 -80 -238 -45 -129 -108 -315 -142
-414 -33 -99 -66 -186 -73 -193 -10 -11 -14 -6 -22 25 -6 21 -31 108 -56 193
-25 85 -75 258 -112 384 -36 126 -68 233 -71 238 -3 4 -39 8 -80 8 -67 0 -75
-2 -70 -17z"/>
<path d="M11522 2538 l3 -543 70 0 70 0 0 540 0 540 -73 3 -72 3 2 -543z"/>
<path d="M12010 3015 l0 -65 285 0 c177 0 285 -4 285 -10 0 -9 -48 -77 -365
-515 -232 -321 -220 -302 -219 -363 1 -30 6 -58 11 -63 5 -5 167 -8 399 -7
l389 3 3 68 3 67 -301 0 c-207 0 -300 3 -300 11 0 6 23 43 51 82 75 107 198
282 261 372 30 44 101 145 157 224 100 143 101 145 101 203 l0 58 -380 0 -380
0 0 -65z"/>
</g>
</svg>
